<?xml version="1.0" encoding="utf-8"?>
<!-- Generator: Adobe Illustrator 24.2.0, SVG Export Plug-In . SVG Version: 6.00 Build 0)  -->
<svg version="1.1" id="Camada_1" xmlns="http://www.w3.org/2000/svg" xmlns:xlink="http://www.w3.org/1999/xlink" x="0px" y="0px"
	 viewBox="0 0 24 24" style="enable-background:new 0 0 24 24;" xml:space="preserve">
<style type="text/css">
	.st0{fill:url(#SVGID_1_);}
</style>
<linearGradient id="SVGID_1_" gradientUnits="userSpaceOnUse" x1="4.547474e-12" y1="12" x2="24" y2="12">
	<stop  offset="0" style="stop-color:#0198F0"/>
	<stop  offset="1" style="stop-color:#1EAC9F"/>
</linearGradient>
<path class="st0" d="M23.58,5.63c0,0-3.79,0.88-7.57,2.74V1.5H0V22.5h10.15h8.43C26.16,19.23,23.58,5.63,23.58,5.63z M8.74,15.13
	c-0.61,1.89-1,3.19-0.34,4.78H2.58V4.08h10.84v5.75C11.27,11.23,9.43,12.99,8.74,15.13z M18.36,19.62
	c-0.71,0.69-1.47,1.23-2.36,1.57c-0.75,0.29-1.59,0.44-2.55,0.41c-0.02-1.09,1.31-3.13,2.55-4.79c1.07-1.43,2.07-2.58,2.07-2.58
	S17.16,14.76,16,15.6c-0.81,0.59-1.74,1.34-2.58,2.19c-0.65,0.66-1.25,1.38-1.67,2.13c-0.26,0.45-0.45,0.91-0.56,1.38
	c-0.24-0.4-0.38-0.88-0.45-1.38c-0.2-1.41,0.15-3.03,0.46-3.99c0.37-1.15,1.18-2.13,2.23-2.98c0.76-0.61,1.65-1.15,2.58-1.62
	c1.89-0.96,3.99-1.64,5.64-2.12C21.68,11.93,21.37,16.7,18.36,19.62z"/>
</svg>
