<svg id="Camada_1" data-name="Camada 1" xmlns="http://www.w3.org/2000/svg" xmlns:xlink="http://www.w3.org/1999/xlink" viewBox="0 0 128 105.13"><defs><style>.cls-1{fill:#fff;}.cls-2{fill:url(#Gradiente_sem_nome_6);}.cls-3{fill:#1db096;}</style><linearGradient id="Gradiente_sem_nome_6" y1="37.28" x2="59.51" y2="37.28" gradientUnits="userSpaceOnUse"><stop offset="0" stop-color="#0198f0"/><stop offset="1" stop-color="#1eac9f"/></linearGradient></defs><g id="Logo_01" data-name="Logo 01"><path class="cls-1" d="M20.34,76.26a10.37,10.37,0,0,0-3.74-2.34,13.2,13.2,0,0,0-4.47-.76,11.9,11.9,0,0,0-6.39,1.68,11.4,11.4,0,0,0-4.23,4.67,16.87,16.87,0,0,0,0,13.93A10.79,10.79,0,0,0,5.8,98a13.09,13.09,0,0,0,6.64,1.61,14.63,14.63,0,0,0,5.31-.91,10,10,0,0,0,3.81-2.57,8.91,8.91,0,0,0,2-3.9L18,91.61a4.65,4.65,0,0,1-1.19,1.82,5.17,5.17,0,0,1-1.85,1.11,7.16,7.16,0,0,1-2.38.37,6.8,6.8,0,0,1-3.44-.84,5.71,5.71,0,0,1-2.28-2.43A8.22,8.22,0,0,1,6,88H23.84V86.11a16.36,16.36,0,0,0-.94-5.82A10.94,10.94,0,0,0,20.34,76.26ZM6,83.89a6.73,6.73,0,0,1,.77-2.8A6.17,6.17,0,0,1,9,78.76a5.87,5.87,0,0,1,3.25-.89,5.8,5.8,0,0,1,3,.78,5.48,5.48,0,0,1,2.05,2.14,6.55,6.55,0,0,1,.75,3.1Z" transform="translate(0 -11.25)"/><path class="cls-1" d="M36.91,79a5.45,5.45,0,0,1,3.26-1,4.86,4.86,0,0,1,3.49,1.25,5.55,5.55,0,0,1,1.66,3.09h5.77a9.33,9.33,0,0,0-5.48-8.07,12.8,12.8,0,0,0-5.53-1.14,12.15,12.15,0,0,0-6.49,1.68,11.24,11.24,0,0,0-4.25,4.67,16.63,16.63,0,0,0,0,13.76,11.08,11.08,0,0,0,4.22,4.66,12.25,12.25,0,0,0,6.58,1.69,12.59,12.59,0,0,0,5.6-1.18,9.32,9.32,0,0,0,3.77-3.27,10,10,0,0,0,1.6-4.81H45.32a5.82,5.82,0,0,1-1,2.35,4.71,4.71,0,0,1-1.78,1.48,5.84,5.84,0,0,1-5.67-.5,6.52,6.52,0,0,1-2.16-2.89A11.88,11.88,0,0,1,34,86.31a11.38,11.38,0,0,1,.78-4.44A6.33,6.33,0,0,1,36.91,79Z" transform="translate(0 -11.25)"/><path class="cls-1" d="M73.74,74.81a13.65,13.65,0,0,0-13,0,11.19,11.19,0,0,0-4.26,4.64,16.75,16.75,0,0,0,0,13.9A11.32,11.32,0,0,0,60.73,98a13.65,13.65,0,0,0,13,0A11.19,11.19,0,0,0,78,93.35a16.75,16.75,0,0,0,0-13.9A11.06,11.06,0,0,0,73.74,74.81Zm-1,15.82a6.78,6.78,0,0,1-2,3,5.17,5.17,0,0,1-3.4,1.13,5.29,5.29,0,0,1-3.46-1.13,6.7,6.7,0,0,1-2.05-3,13.62,13.62,0,0,1,0-8.5,6.74,6.74,0,0,1,2.05-3A5.29,5.29,0,0,1,67.27,78a5.17,5.17,0,0,1,3.4,1.13,6.82,6.82,0,0,1,2,3,13.81,13.81,0,0,1,0,8.5Z" transform="translate(0 -11.25)"/><path class="cls-1" d="M94.24,63.35a9.41,9.41,0,0,0-4,.86,6.69,6.69,0,0,0-2.89,2.56,8,8,0,0,0-1.07,4.31V73.5H82.45v4.67h3.79v21h6.05v-21h5.3V73.5h-5.3v-2A3.46,3.46,0,0,1,93,69.17a3,3,0,0,1,2.38-.81,6.46,6.46,0,0,1,1.3.12c.39.09.71.17,1,.25l1.2-4.68A17.69,17.69,0,0,0,97,63.6,14.45,14.45,0,0,0,94.24,63.35Z" transform="translate(0 -11.25)"/><path class="cls-1" d="M105.37,63.3a3.5,3.5,0,0,0-2.47,1,3.1,3.1,0,0,0,0,4.63,3.64,3.64,0,0,0,4.94,0,3,3,0,0,0,1-2.31,3.07,3.07,0,0,0-1-2.32A3.49,3.49,0,0,0,105.37,63.3Z" transform="translate(0 -11.25)"/><rect class="cls-1" x="102.33" y="62.24" width="6.04" height="25.62"/><path class="cls-1" d="M126.82,94.15l-.73.15a6.66,6.66,0,0,1-1,.08,4,4,0,0,1-1.37-.23,2,2,0,0,1-1-.88,3.74,3.74,0,0,1-.38-1.86V78.17h5.06V73.5h-5.06V67.36h-6V73.5h-3.64v4.67h3.64V92.41a6.89,6.89,0,0,0,1,4,6.17,6.17,0,0,0,2.87,2.36,9.81,9.81,0,0,0,4.09.7,11.58,11.58,0,0,0,2.18-.24,13.31,13.31,0,0,0,1.37-.36Z" transform="translate(0 -11.25)"/><path class="cls-2" d="M58.45,21.49A98.77,98.77,0,0,0,39.68,28.3v-17H0V63.3H46.08C64.85,55.2,58.45,21.49,58.45,21.49ZM21.67,45c-1.51,4.69-2.48,7.91-.85,11.86H6.4V17.65H33.28V31.9C27.93,35.37,23.38,39.73,21.67,45ZM45.53,56.17a17.11,17.11,0,0,1-5.85,3.9,15.93,15.93,0,0,1-6.32,1c0-2.7,3.25-7.76,6.32-11.87,2.65-3.55,5.12-6.4,5.12-6.4s-2.24,1.29-5.12,3.38a54,54,0,0,0-6.4,5.42,26.47,26.47,0,0,0-4.15,5.28,13.27,13.27,0,0,0-1.4,3.42,9.24,9.24,0,0,1-1.11-3.42A24.12,24.12,0,0,1,27.76,47a16.1,16.1,0,0,1,5.52-7.38,35.42,35.42,0,0,1,6.4-4,83,83,0,0,1,14-5.27C53.75,37.1,53,48.92,45.53,56.17Z" transform="translate(0 -11.25)"/><path class="cls-3" d="M5.38,110.27h-1a1.6,1.6,0,0,0-.21-.54,1.48,1.48,0,0,0-.36-.39,1.44,1.44,0,0,0-.48-.24,1.79,1.79,0,0,0-.57-.08,1.74,1.74,0,0,0-1,.27,1.81,1.81,0,0,0-.67.79,3.07,3.07,0,0,0-.25,1.28,3,3,0,0,0,.25,1.28,1.76,1.76,0,0,0,.67.79,1.74,1.74,0,0,0,1,.27,1.73,1.73,0,0,0,.56-.08,1.35,1.35,0,0,0,.48-.24,1.26,1.26,0,0,0,.37-.39,1.42,1.42,0,0,0,.21-.52h1a2.34,2.34,0,0,1-.3.84,2.38,2.38,0,0,1-.55.67,2.69,2.69,0,0,1-.78.43,2.87,2.87,0,0,1-1,.15,2.76,2.76,0,0,1-1.44-.38,2.77,2.77,0,0,1-1-1.11A3.78,3.78,0,0,1,0,111.36a3.67,3.67,0,0,1,.37-1.72,2.71,2.71,0,0,1,1-1.1,2.82,2.82,0,0,1,1.44-.38,2.83,2.83,0,0,1,.93.14,2.28,2.28,0,0,1,.77.41,2.31,2.31,0,0,1,.57.67A2.47,2.47,0,0,1,5.38,110.27Z" transform="translate(0 -11.25)"/><path class="cls-3" d="M11.92,111.36a3.63,3.63,0,0,1-.37,1.71,2.63,2.63,0,0,1-1,1.11,2.92,2.92,0,0,1-2.88,0,2.7,2.7,0,0,1-1-1.11,4.16,4.16,0,0,1,0-3.43,2.73,2.73,0,0,1,1-1.1,2.92,2.92,0,0,1,2.88,0,2.67,2.67,0,0,1,1,1.1A3.67,3.67,0,0,1,11.92,111.36Zm-.93,0a2.86,2.86,0,0,0-.25-1.28,1.78,1.78,0,0,0-.67-.8,1.9,1.9,0,0,0-1.92,0,1.91,1.91,0,0,0-.67.8,3,3,0,0,0-.24,1.28,3,3,0,0,0,.24,1.28,1.88,1.88,0,0,0,.67.79,1.78,1.78,0,0,0,2.59-.79A2.89,2.89,0,0,0,11,111.36Z" transform="translate(0 -11.25)"/><path class="cls-3" d="M18.12,108.24v6.24h-.87l-3.16-4.58H14v4.58h-.94v-6.24H14l3.17,4.58h.06v-4.58Z" transform="translate(0 -11.25)"/><path class="cls-3" d="M22.89,109.88a.9.9,0,0,0-.4-.67,1.58,1.58,0,0,0-.89-.24,1.71,1.71,0,0,0-.67.12,1,1,0,0,0-.43.33.8.8,0,0,0-.15.47.71.71,0,0,0,.1.39.88.88,0,0,0,.28.26,1.27,1.27,0,0,0,.37.18l.38.12.61.16a3.94,3.94,0,0,1,.61.2,2.23,2.23,0,0,1,.58.33,1.48,1.48,0,0,1,.6,1.22,1.65,1.65,0,0,1-.27.94,1.83,1.83,0,0,1-.79.65,2.93,2.93,0,0,1-1.25.24,3.19,3.19,0,0,1-1.21-.22,1.77,1.77,0,0,1-1.12-1.61h.94a.92.92,0,0,0,.23.56,1.17,1.17,0,0,0,.49.34,2,2,0,0,0,.67.1,2,2,0,0,0,.71-.12,1.14,1.14,0,0,0,.49-.36.81.81,0,0,0,.18-.53.64.64,0,0,0-.16-.45,1.12,1.12,0,0,0-.42-.29,4.2,4.2,0,0,0-.6-.21l-.74-.2a2.68,2.68,0,0,1-1.18-.6,1.3,1.3,0,0,1-.44-1,1.57,1.57,0,0,1,.29-.94,2,2,0,0,1,.79-.63,2.75,2.75,0,0,1,1.13-.22,2.67,2.67,0,0,1,1.12.22,1.86,1.86,0,0,1,.76.61,1.46,1.46,0,0,1,.29.89Z" transform="translate(0 -11.25)"/><path class="cls-3" d="M24.7,109.05v-.81h4.82v.81H27.57v5.43h-.93v-5.43Z" transform="translate(0 -11.25)"/><path class="cls-3" d="M30.58,114.48v-6.24H32.8a2.68,2.68,0,0,1,1.21.25,1.63,1.63,0,0,1,.71.69,2.08,2.08,0,0,1,.24,1,2,2,0,0,1-.24,1,1.64,1.64,0,0,1-.72.68,2.67,2.67,0,0,1-1.2.24H31.12v-.81h1.6a1.93,1.93,0,0,0,.74-.13.92.92,0,0,0,.42-.38,1.26,1.26,0,0,0,.13-.6,1.35,1.35,0,0,0-.13-.62.89.89,0,0,0-.42-.39,1.84,1.84,0,0,0-.76-.14H31.52v5.43Zm3.08-2.82,1.54,2.82H34.13l-1.51-2.82Z" transform="translate(0 -11.25)"/><path class="cls-3" d="M40.12,108.24h.94v4.1a2.14,2.14,0,0,1-.31,1.16,2.06,2.06,0,0,1-.86.79,3.08,3.08,0,0,1-2.61,0,2.06,2.06,0,0,1-.86-.79,2.14,2.14,0,0,1-.31-1.16v-4.1h.94v4a1.44,1.44,0,0,0,.19.75,1.24,1.24,0,0,0,.53.51,1.84,1.84,0,0,0,1.63,0,1.24,1.24,0,0,0,.53-.51,1.44,1.44,0,0,0,.19-.75Z" transform="translate(0 -11.25)"/><path class="cls-3" d="M47.61,110.27h-1a1.6,1.6,0,0,0-.21-.54,1.67,1.67,0,0,0-.36-.39,1.54,1.54,0,0,0-.48-.24A1.79,1.79,0,0,0,45,109a1.74,1.74,0,0,0-1,.27,1.81,1.81,0,0,0-.67.79,3.07,3.07,0,0,0-.25,1.28,3,3,0,0,0,.25,1.28,1.76,1.76,0,0,0,.67.79,1.9,1.9,0,0,0,1.52.19,1.35,1.35,0,0,0,.48-.24,1.26,1.26,0,0,0,.37-.39,1.42,1.42,0,0,0,.21-.52h1a2.34,2.34,0,0,1-.3.84,2.38,2.38,0,0,1-.55.67,2.69,2.69,0,0,1-.78.43,2.87,2.87,0,0,1-.95.15,2.61,2.61,0,0,1-2.44-1.49,4.27,4.27,0,0,1,0-3.43,2.81,2.81,0,0,1,1-1.1,2.76,2.76,0,0,1,1.44-.38,2.83,2.83,0,0,1,.93.14,2.38,2.38,0,0,1,.77.41,2.31,2.31,0,0,1,.57.67A2.68,2.68,0,0,1,47.61,110.27Zm-2.9,4.21h.6l-.05.25a.86.86,0,0,1,.46.22.6.6,0,0,1,.2.51.77.77,0,0,1-.35.67,1.8,1.8,0,0,1-1,.25v-.5a1.08,1.08,0,0,0,.51-.1.31.31,0,0,0,.2-.29.31.31,0,0,0-.15-.29,1.55,1.55,0,0,0-.49-.11Z" transform="translate(0 -11.25)"/><path class="cls-3" d="M54.15,111.36a3.63,3.63,0,0,1-.37,1.71,2.63,2.63,0,0,1-1,1.11,2.92,2.92,0,0,1-2.88,0,2.63,2.63,0,0,1-1-1.11,4.16,4.16,0,0,1,0-3.43,2.67,2.67,0,0,1,1-1.1,2.92,2.92,0,0,1,2.88,0,2.67,2.67,0,0,1,1,1.1A3.67,3.67,0,0,1,54.15,111.36Zm-.93,0a3,3,0,0,0-.25-1.28,1.78,1.78,0,0,0-.67-.8,1.9,1.9,0,0,0-1.92,0,1.91,1.91,0,0,0-.67.8,3,3,0,0,0-.24,1.28,3,3,0,0,0,.24,1.28,1.88,1.88,0,0,0,.67.79,1.78,1.78,0,0,0,2.59-.79A3,3,0,0,0,53.22,111.36Zm-2.79-3.74-.62,0a1.16,1.16,0,0,1,.27-.8.9.9,0,0,1,.68-.3.88.88,0,0,1,.33.06l.26.14a1.58,1.58,0,0,0,.24.15.67.67,0,0,0,.28.06.37.37,0,0,0,.29-.14.49.49,0,0,0,.11-.33l.6,0a1.08,1.08,0,0,1-.28.8.85.85,0,0,1-.67.29,1,1,0,0,1-.36-.06,1.48,1.48,0,0,1-.25-.14c-.07-.06-.15-.1-.22-.15a.61.61,0,0,0-.28-.06.39.39,0,0,0-.28.13A.52.52,0,0,0,50.43,107.62Z" transform="translate(0 -11.25)"/><path class="cls-3" d="M55.32,114.48v-6.24h3.9v.81h-3V111H59v.81H56.26v1.91h3v.81Z" transform="translate(0 -11.25)"/><path class="cls-3" d="M63.88,109.88a.87.87,0,0,0-.4-.67,1.53,1.53,0,0,0-.89-.24,1.69,1.69,0,0,0-.66.12,1,1,0,0,0-.43.33.74.74,0,0,0-.16.47.71.71,0,0,0,.11.39,1,1,0,0,0,.27.26,1.41,1.41,0,0,0,.37.18,3.43,3.43,0,0,0,.39.12l.6.16a4,4,0,0,1,.62.2,2.4,2.4,0,0,1,.58.33,1.48,1.48,0,0,1,.6,1.22,1.58,1.58,0,0,1-.28.94,1.8,1.8,0,0,1-.78.65,3,3,0,0,1-1.25.24,3.15,3.15,0,0,1-1.21-.22,1.88,1.88,0,0,1-.8-.63,1.79,1.79,0,0,1-.32-1h.94a.91.91,0,0,0,.22.56,1.27,1.27,0,0,0,.5.34,2,2,0,0,0,.66.1,1.92,1.92,0,0,0,.71-.12,1.18,1.18,0,0,0,.5-.36.81.81,0,0,0,.18-.53.69.69,0,0,0-.16-.45,1.31,1.31,0,0,0-.42-.29,3.94,3.94,0,0,0-.61-.21l-.73-.2a2.72,2.72,0,0,1-1.19-.6,1.33,1.33,0,0,1-.43-1,1.5,1.5,0,0,1,.29-.94,1.91,1.91,0,0,1,.79-.63,2.71,2.71,0,0,1,1.13-.22,2.59,2.59,0,0,1,1.11.22,1.89,1.89,0,0,1,.77.61,1.53,1.53,0,0,1,.29.89Z" transform="translate(0 -11.25)"/><path class="cls-3" d="M69.21,108.24v6.24h-.94v-6.24Z" transform="translate(0 -11.25)"/><path class="cls-3" d="M75.61,108.24v6.24h-.86l-3.17-4.58h-.06v4.58h-.94v-6.24h.87l3.17,4.58h.06v-4.58Z" transform="translate(0 -11.25)"/><path class="cls-3" d="M76.67,109.05v-.81H81.5v.81h-2v5.43h-.94v-5.43Z" transform="translate(0 -11.25)"/><path class="cls-3" d="M82.56,114.48v-6.24h3.91v.81h-3V111h2.76v.81H83.5v1.91h3v.81Z" transform="translate(0 -11.25)"/><path class="cls-3" d="M87.73,114.48v-6.24h.94v5.43h2.82v.81Z" transform="translate(0 -11.25)"/><path class="cls-3" d="M93.5,108.24v6.24h-.94v-6.24Z" transform="translate(0 -11.25)"/><path class="cls-3" d="M99.09,110.21a2.54,2.54,0,0,0-.23-.5,1.58,1.58,0,0,0-.36-.37,1.26,1.26,0,0,0-.46-.24,1.71,1.71,0,0,0-.57-.08,1.73,1.73,0,0,0-1,.27,1.88,1.88,0,0,0-.67.79,3,3,0,0,0-.24,1.28,3.08,3.08,0,0,0,.24,1.28,1.83,1.83,0,0,0,.68.79,1.8,1.8,0,0,0,1,.27,1.87,1.87,0,0,0,.88-.2,1.46,1.46,0,0,0,.59-.59,1.8,1.8,0,0,0,.21-.89l.24,0H97.65v-.77h2.45v.7a2.72,2.72,0,0,1-.33,1.37,2.38,2.38,0,0,1-.92.89,3,3,0,0,1-2.83-.08,2.68,2.68,0,0,1-1-1.11,3.71,3.71,0,0,1-.36-1.7,4,4,0,0,1,.21-1.34,3,3,0,0,1,.58-1,2.54,2.54,0,0,1,.89-.63,2.72,2.72,0,0,1,1.11-.22,3,3,0,0,1,1,.15,2.66,2.66,0,0,1,.78.42,2.5,2.5,0,0,1,.56.65,2.59,2.59,0,0,1,.31.83Z" transform="translate(0 -11.25)"/><path class="cls-3" d="M101.29,114.48v-6.24h3.91v.81h-3V111H105v.81h-2.77v1.91h3v.81Z" transform="translate(0 -11.25)"/><path class="cls-3" d="M111.49,108.24v6.24h-.86l-3.17-4.58h-.06v4.58h-.94v-6.24h.87l3.17,4.58h.06v-4.58Z" transform="translate(0 -11.25)"/><path class="cls-3" d="M112.55,109.05v-.81h4.83v.81h-1.95v5.43h-.93v-5.43Z" transform="translate(0 -11.25)"/><path class="cls-3" d="M118.44,114.48v-6.24h3.91v.81h-3V111h2.76v.81h-2.76v1.91h3v.81Z" transform="translate(0 -11.25)"/><path class="cls-3" d="M127,109.88a.9.9,0,0,0-.4-.67,1.58,1.58,0,0,0-.89-.24,1.71,1.71,0,0,0-.67.12,1,1,0,0,0-.43.33.8.8,0,0,0-.15.47.71.71,0,0,0,.1.39.88.88,0,0,0,.28.26,1.27,1.27,0,0,0,.37.18l.38.12.61.16a3.94,3.94,0,0,1,.61.2,2.23,2.23,0,0,1,.58.33,1.48,1.48,0,0,1,.6,1.22,1.65,1.65,0,0,1-.27.94,1.83,1.83,0,0,1-.79.65,2.93,2.93,0,0,1-1.25.24,3.19,3.19,0,0,1-1.21-.22,1.77,1.77,0,0,1-1.12-1.61h.94a.92.92,0,0,0,.23.56,1.17,1.17,0,0,0,.49.34,2,2,0,0,0,.67.1,2,2,0,0,0,.71-.12,1.14,1.14,0,0,0,.49-.36.81.81,0,0,0,.18-.53.64.64,0,0,0-.16-.45,1.12,1.12,0,0,0-.42-.29,4.2,4.2,0,0,0-.6-.21l-.74-.2A2.68,2.68,0,0,1,124,111a1.3,1.3,0,0,1-.44-1,1.57,1.57,0,0,1,.29-.94,2,2,0,0,1,.79-.63,2.75,2.75,0,0,1,1.13-.22,2.67,2.67,0,0,1,1.12.22,1.86,1.86,0,0,1,.76.61,1.46,1.46,0,0,1,.29.89Z" transform="translate(0 -11.25)"/></g></svg>