<svg id="Camada_1" data-name="Camada 1" xmlns="http://www.w3.org/2000/svg" xmlns:xlink="http://www.w3.org/1999/xlink" viewBox="0 0 64 64"><defs><style>.cls-1{fill:#1c3c5a;}.cls-2{fill:url(#Gradiente_sem_nome_6);}</style><linearGradient id="Gradiente_sem_nome_6" x1="0.58" y1="18.97" x2="29.79" y2="18.97" gradientUnits="userSpaceOnUse"><stop offset="0" stop-color="#0198f0"/><stop offset="1" stop-color="#1eac9f"/></linearGradient></defs><g id="Logo_01" data-name="Logo 01"><path class="cls-1" d="M10.56,38.11A5,5,0,0,0,8.73,37a6.39,6.39,0,0,0-2.2-.37,5.86,5.86,0,0,0-3.14.82A5.54,5.54,0,0,0,1.32,39.7a8.32,8.32,0,0,0,0,6.84,5.34,5.34,0,0,0,2.11,2.25,6.51,6.51,0,0,0,3.27.79,7.05,7.05,0,0,0,2.6-.45,4.91,4.91,0,0,0,1.87-1.26,4.34,4.34,0,0,0,1-1.91l-2.77-.31a2.37,2.37,0,0,1-.58.89,2.53,2.53,0,0,1-.91.54,3.34,3.34,0,0,1-1.17.19A3.29,3.29,0,0,1,5,46.85a2.75,2.75,0,0,1-1.12-1.19,4,4,0,0,1-.4-1.81h8.76v-.91a7.89,7.89,0,0,0-.46-2.85A5.39,5.39,0,0,0,10.56,38.11Zm-7,3.74a3.23,3.23,0,0,1,.38-1.37A3.05,3.05,0,0,1,5,39.34a2.85,2.85,0,0,1,1.6-.44,2.93,2.93,0,0,1,1.5.38,2.76,2.76,0,0,1,1,1.06,3.24,3.24,0,0,1,.37,1.51Z"/><path class="cls-1" d="M18.7,39.47A2.66,2.66,0,0,1,20.3,39a2.37,2.37,0,0,1,1.71.61,2.77,2.77,0,0,1,.82,1.52h2.83a4.58,4.58,0,0,0-2.69-4,6.31,6.31,0,0,0-2.71-.56,6,6,0,0,0-3.19.82A5.52,5.52,0,0,0,15,39.7a8.14,8.14,0,0,0,0,6.76A5.41,5.41,0,0,0,17,48.75a6.09,6.09,0,0,0,3.23.83A6.06,6.06,0,0,0,23,49a4.56,4.56,0,0,0,1.86-1.61A4.9,4.9,0,0,0,25.66,45H22.83a2.77,2.77,0,0,1-.49,1.16,2.25,2.25,0,0,1-.87.72,2.61,2.61,0,0,1-1.17.25,2.65,2.65,0,0,1-1.61-.49,3.17,3.17,0,0,1-1.06-1.42A5.83,5.83,0,0,1,17.25,43a5.74,5.74,0,0,1,.38-2.18A3.17,3.17,0,0,1,18.7,39.47Z"/><path class="cls-1" d="M36.78,37.4a6.69,6.69,0,0,0-6.38,0,5.45,5.45,0,0,0-2.1,2.28,8.23,8.23,0,0,0,0,6.82,5.49,5.49,0,0,0,2.1,2.27,6.69,6.69,0,0,0,6.38,0,5.55,5.55,0,0,0,2.1-2.27,8.23,8.23,0,0,0,0-6.82A5.52,5.52,0,0,0,36.78,37.4Zm-.5,7.76a3.33,3.33,0,0,1-1,1.49,2.55,2.55,0,0,1-1.67.55,2.57,2.57,0,0,1-1.7-.55,3.27,3.27,0,0,1-1-1.49,6.18,6.18,0,0,1-.33-2.08A6.28,6.28,0,0,1,30.9,41a3.33,3.33,0,0,1,1-1.49,2.53,2.53,0,0,1,1.7-.56,2.5,2.5,0,0,1,1.67.56,3.39,3.39,0,0,1,1,1.49,6.28,6.28,0,0,1,.33,2.09A6.18,6.18,0,0,1,36.28,45.16Z"/><path class="cls-1" d="M46.85,31.77a4.56,4.56,0,0,0-2,.42,3.27,3.27,0,0,0-1.42,1.26,3.84,3.84,0,0,0-.53,2.11v1.19H41.06v2.3h1.86V49.33h3V39.05h2.6v-2.3h-2.6v-1a1.66,1.66,0,0,1,.34-1.13,1.46,1.46,0,0,1,1.17-.4,3.16,3.16,0,0,1,.64.06l.47.12.59-2.29a6.89,6.89,0,0,0-.88-.22A6.31,6.31,0,0,0,46.85,31.77Z"/><path class="cls-1" d="M52.31,31.75a1.69,1.69,0,0,0-1.21.47,1.52,1.52,0,0,0,0,2.27,1.7,1.7,0,0,0,1.21.48,1.74,1.74,0,0,0,1.22-.47,1.55,1.55,0,0,0,0-2.28A1.74,1.74,0,0,0,52.31,31.75Z"/><rect class="cls-1" x="50.82" y="36.75" width="2.96" height="12.58"/><path class="cls-1" d="M62.84,46.89l-.35.08A4.06,4.06,0,0,1,62,47a1.87,1.87,0,0,1-.68-.12,1,1,0,0,1-.48-.43,1.74,1.74,0,0,1-.19-.91v-6.5h2.48v-2.3H60.63v-3h-3v3H55.88v2.3h1.79v7a3.4,3.4,0,0,0,.51,2,3.06,3.06,0,0,0,1.41,1.15,4.68,4.68,0,0,0,2,.34,6.08,6.08,0,0,0,1.07-.11l.67-.18Z"/><path class="cls-2" d="M29.28,11.22a48.3,48.3,0,0,0-9.22,3.34V6.19H.58V31.75H23.2C32.42,27.77,29.28,11.22,29.28,11.22ZM11.22,22.78c-.75,2.3-1.22,3.89-.42,5.83H3.72V9.33h13.2v7C14.29,18,12.06,20.17,11.22,22.78Zm11.71,5.47a8.34,8.34,0,0,1-2.87,1.91,8,8,0,0,1-3.11.5c0-1.33,1.6-3.81,3.11-5.83,1.3-1.74,2.51-3.14,2.51-3.14s-1.1.63-2.51,1.66A25.25,25.25,0,0,0,16.92,26a13,13,0,0,0-2,2.6,6.63,6.63,0,0,0-.69,1.67,4.44,4.44,0,0,1-.54-1.67,11.65,11.65,0,0,1,.56-4.86,7.8,7.8,0,0,1,2.71-3.62,17.08,17.08,0,0,1,3.14-2,41,41,0,0,1,6.86-2.59C27,18.88,26.59,24.69,22.93,28.25Z"/><path class="cls-1" d="M3.22,54.81H2.75a.79.79,0,0,0-.1-.27.81.81,0,0,0-.18-.19.9.9,0,0,0-.24-.12,1.17,1.17,0,0,0-.27,0,.87.87,0,0,0-.48.14.86.86,0,0,0-.33.39,1.46,1.46,0,0,0-.12.62,1.48,1.48,0,0,0,.12.63,1.07,1.07,0,0,0,.33.39.86.86,0,0,0,.48.13.84.84,0,0,0,.27,0,.66.66,0,0,0,.24-.11,1.07,1.07,0,0,0,.18-.19.82.82,0,0,0,.1-.26h.47a1.34,1.34,0,0,1-.15.41,1.09,1.09,0,0,1-.27.33,1.28,1.28,0,0,1-.38.21,1.4,1.4,0,0,1-.47.08,1.42,1.42,0,0,1-.71-.19,1.38,1.38,0,0,1-.49-.55,1.93,1.93,0,0,1-.17-.84,1.86,1.86,0,0,1,.18-.84A1.28,1.28,0,0,1,1.25,54a1.27,1.27,0,0,1,.7-.19,1.39,1.39,0,0,1,.46.07,1.25,1.25,0,0,1,.38.2,1.29,1.29,0,0,1,.28.33A1.43,1.43,0,0,1,3.22,54.81Z"/><path class="cls-1" d="M6.43,55.34a1.87,1.87,0,0,1-.18.85,1.35,1.35,0,0,1-.49.54,1.42,1.42,0,0,1-1.42,0,1.31,1.31,0,0,1-.49-.55,1.8,1.8,0,0,1-.18-.84,1.86,1.86,0,0,1,.18-.84A1.35,1.35,0,0,1,4.34,54a1.33,1.33,0,0,1,.71-.19,1.33,1.33,0,0,1,.71.19,1.35,1.35,0,0,1,.49.54A1.86,1.86,0,0,1,6.43,55.34Zm-.46,0a1.48,1.48,0,0,0-.12-.63.89.89,0,0,0-1.27-.39.91.91,0,0,0-.33.39,1.71,1.71,0,0,0,0,1.26.91.91,0,0,0,.33.39.91.91,0,0,0,.94,0A.91.91,0,0,0,5.85,56,1.48,1.48,0,0,0,6,55.34Z"/><path class="cls-1" d="M9.47,53.81v3.06H9.05L7.49,54.63h0v2.24H7V53.81h.43L9,56.06H9V53.81Z"/><path class="cls-1" d="M11.81,54.62a.44.44,0,0,0-.19-.33.76.76,0,0,0-.44-.12.84.84,0,0,0-.33.06.49.49,0,0,0-.21.16.39.39,0,0,0-.07.23.29.29,0,0,0,0,.19.4.4,0,0,0,.13.13.66.66,0,0,0,.19.09l.18.06.3.08a1.71,1.71,0,0,1,.3.09,1.22,1.22,0,0,1,.29.17.7.7,0,0,1,.21.24.8.8,0,0,1,.08.36.82.82,0,0,1-.13.46,1,1,0,0,1-.39.32,1.42,1.42,0,0,1-.61.11,1.4,1.4,0,0,1-.6-.11A.88.88,0,0,1,10,56h.47a.41.41,0,0,0,.11.27.53.53,0,0,0,.24.17,1.14,1.14,0,0,0,.33.05.9.9,0,0,0,.34-.06.52.52,0,0,0,.25-.18.45.45,0,0,0,.08-.26.32.32,0,0,0-.07-.22.46.46,0,0,0-.21-.14l-.3-.1-.36-.1a1.44,1.44,0,0,1-.58-.3.66.66,0,0,1-.21-.51.72.72,0,0,1,.14-.46.87.87,0,0,1,.39-.31,1.38,1.38,0,0,1,.55-.11,1.35,1.35,0,0,1,.55.11.94.94,0,0,1,.38.3.74.74,0,0,1,.14.44Z"/><path class="cls-1" d="M12.7,54.21v-.4h2.37v.4h-1v2.66h-.47V54.21Z"/><path class="cls-1" d="M15.59,56.87V53.81h1.09a1.15,1.15,0,0,1,.59.13.83.83,0,0,1,.36.33,1.15,1.15,0,0,1,.11.5,1,1,0,0,1-.12.5.75.75,0,0,1-.35.33,1.26,1.26,0,0,1-.59.12h-.83v-.4h.79a.74.74,0,0,0,.36-.07.38.38,0,0,0,.21-.18.58.58,0,0,0,.07-.3.6.6,0,0,0-.07-.3.39.39,0,0,0-.21-.19.76.76,0,0,0-.37-.07h-.58v2.66Zm1.51-1.38.76,1.38h-.53l-.74-1.38Z"/><path class="cls-1" d="M20.27,53.81h.47v2a1,1,0,0,1-.15.56,1,1,0,0,1-.43.39,1.29,1.29,0,0,1-.64.14,1.31,1.31,0,0,1-.64-.14,1,1,0,0,1-.42-.39,1,1,0,0,1-.15-.56v-2h.46v2a.75.75,0,0,0,.09.37.63.63,0,0,0,.26.25.84.84,0,0,0,.4.09.82.82,0,0,0,.4-.09.57.57,0,0,0,.26-.25.75.75,0,0,0,.09-.37Z"/><path class="cls-1" d="M24,54.81h-.47a.63.63,0,0,0-.1-.27.61.61,0,0,0-.17-.19,1.08,1.08,0,0,0-.24-.12,1.26,1.26,0,0,0-.28,0,.86.86,0,0,0-.47.14.81.81,0,0,0-.33.39,1.46,1.46,0,0,0-.12.62,1.48,1.48,0,0,0,.12.63.91.91,0,0,0,.33.39.94.94,0,0,0,.75.09.7.7,0,0,0,.23-.11,1.07,1.07,0,0,0,.18-.19.64.64,0,0,0,.1-.26H24a1.16,1.16,0,0,1-.42.74,1.17,1.17,0,0,1-.38.21,1.34,1.34,0,0,1-.46.08,1.39,1.39,0,0,1-.71-.19,1.31,1.31,0,0,1-.49-.55,1.8,1.8,0,0,1-.18-.84,1.86,1.86,0,0,1,.18-.84A1.35,1.35,0,0,1,22,54a1.3,1.3,0,0,1,.71-.19,1.33,1.33,0,0,1,.45.07,1.25,1.25,0,0,1,.38.2,1.12,1.12,0,0,1,.28.33A1,1,0,0,1,24,54.81Zm-1.42,2.07h.29l0,.12a.48.48,0,0,1,.23.1.34.34,0,0,1,.09.26.36.36,0,0,1-.17.32.84.84,0,0,1-.51.13v-.25a.57.57,0,0,0,.25,0,.15.15,0,0,0,.1-.15.14.14,0,0,0-.07-.14.59.59,0,0,0-.24-.06Z"/><path class="cls-1" d="M27.16,55.34a1.87,1.87,0,0,1-.18.85,1.35,1.35,0,0,1-.49.54,1.39,1.39,0,0,1-.71.19,1.36,1.36,0,0,1-.7-.19,1.34,1.34,0,0,1-.5-.55,1.93,1.93,0,0,1-.17-.84,2,2,0,0,1,.17-.84,1.37,1.37,0,0,1,.5-.54,1.27,1.27,0,0,1,.7-.19,1.3,1.3,0,0,1,.71.19,1.35,1.35,0,0,1,.49.54A1.86,1.86,0,0,1,27.16,55.34Zm-.45,0a1.48,1.48,0,0,0-.12-.63,1,1,0,0,0-.33-.39.93.93,0,0,0-1,0,.91.91,0,0,0-.33.39A1.71,1.71,0,0,0,25,56a.91.91,0,0,0,.33.39.85.85,0,0,0,.47.13.86.86,0,0,0,.48-.13,1,1,0,0,0,.33-.39A1.48,1.48,0,0,0,26.71,55.34Zm-1.38-1.83H25a.57.57,0,0,1,.14-.4A.51.51,0,0,1,25.5,53a.42.42,0,0,1,.16,0l.13.07.12.07a.31.31,0,0,0,.13,0,.17.17,0,0,0,.14-.07.23.23,0,0,0,.06-.16l.29,0a.53.53,0,0,1-.13.39.42.42,0,0,1-.33.14.48.48,0,0,1-.18,0l-.12-.07-.11-.07a.29.29,0,0,0-.14,0,.15.15,0,0,0-.13.07A.21.21,0,0,0,25.33,53.51Z"/><path class="cls-1" d="M27.74,56.87V53.81h1.92v.4H28.2v.93h1.36v.4H28.2v.94h1.47v.39Z"/><path class="cls-1" d="M31.94,54.62a.44.44,0,0,0-.19-.33.78.78,0,0,0-.44-.12.84.84,0,0,0-.33.06.49.49,0,0,0-.21.16.39.39,0,0,0-.07.23.29.29,0,0,0,.05.19.4.4,0,0,0,.13.13l.18.09.19.06.3.08a1.71,1.71,0,0,1,.3.09,1.22,1.22,0,0,1,.29.17.83.83,0,0,1,.21.24.8.8,0,0,1,.08.36.82.82,0,0,1-.13.46,1,1,0,0,1-.39.32,1.42,1.42,0,0,1-.61.11,1.4,1.4,0,0,1-.6-.11.86.86,0,0,1-.39-.31.91.91,0,0,1-.16-.47h.47a.46.46,0,0,0,.1.27.62.62,0,0,0,.25.17,1.13,1.13,0,0,0,.32.05.91.91,0,0,0,.35-.06.45.45,0,0,0,.24-.18A.39.39,0,0,0,32,56a.32.32,0,0,0-.07-.22.52.52,0,0,0-.21-.14l-.3-.1-.36-.1a1.44,1.44,0,0,1-.58-.3.66.66,0,0,1-.21-.51.72.72,0,0,1,.14-.46.87.87,0,0,1,.39-.31,1.43,1.43,0,0,1,1.1,0,.85.85,0,0,1,.37.3.75.75,0,0,1,.15.44Z"/><path class="cls-1" d="M34.56,53.81v3.06H34.1V53.81Z"/><path class="cls-1" d="M37.7,53.81v3.06h-.42l-1.56-2.24h0v2.24h-.46V53.81h.43l1.56,2.25h0V53.81Z"/><path class="cls-1" d="M38.22,54.21v-.4h2.37v.4h-1v2.66h-.46V54.21Z"/><path class="cls-1" d="M41.11,56.87V53.81H43v.4H41.57v.93h1.36v.4H41.57v.94h1.48v.39Z"/><path class="cls-1" d="M43.65,56.87V53.81h.46v2.67H45.5v.39Z"/><path class="cls-1" d="M46.49,53.81v3.06H46V53.81Z"/><path class="cls-1" d="M49.23,54.78a.9.9,0,0,0-.12-.24.52.52,0,0,0-.17-.19.71.71,0,0,0-.23-.12,1.11,1.11,0,0,0-.28,0,.89.89,0,0,0-.79.52,1.51,1.51,0,0,0-.12.63,1.48,1.48,0,0,0,.12.63.91.91,0,0,0,.33.39.86.86,0,0,0,.48.13.89.89,0,0,0,.44-.1.74.74,0,0,0,.29-.29,1,1,0,0,0,.1-.43l.12,0h-.88v-.38h1.21v.35a1.27,1.27,0,0,1-.17.66,1.12,1.12,0,0,1-.45.44,1.4,1.4,0,0,1-.66.16,1.35,1.35,0,0,1-.73-.2,1.15,1.15,0,0,1-.48-.54,1.8,1.8,0,0,1-.18-.84,1.89,1.89,0,0,1,.1-.65,1.53,1.53,0,0,1,.29-.5,1.31,1.31,0,0,1,.43-.31,1.42,1.42,0,0,1,.55-.11,1.64,1.64,0,0,1,.46.07,1.33,1.33,0,0,1,.39.21,1.18,1.18,0,0,1,.27.32,1,1,0,0,1,.15.41Z"/><path class="cls-1" d="M50.31,56.87V53.81h1.92v.4H50.77v.93h1.36v.4H50.77v.94h1.48v.39Z"/><path class="cls-1" d="M55.32,53.81v3.06h-.43l-1.55-2.24h0v2.24h-.46V53.81h.43l1.55,2.25h0V53.81Z"/><path class="cls-1" d="M55.84,54.21v-.4h2.37v.4h-1v2.66h-.46V54.21Z"/><path class="cls-1" d="M58.73,56.87V53.81h1.92v.4H59.19v.93h1.36v.4H59.19v.94h1.48v.39Z"/><path class="cls-1" d="M62.94,54.62a.45.45,0,0,0-.2-.33.76.76,0,0,0-.44-.12.79.79,0,0,0-.32.06.52.52,0,0,0-.22.16.39.39,0,0,0-.07.23.36.36,0,0,0,.05.19.44.44,0,0,0,.14.13.51.51,0,0,0,.18.09l.19.06.29.08a1.71,1.71,0,0,1,.3.09,1.05,1.05,0,0,1,.29.17.61.61,0,0,1,.21.24.68.68,0,0,1,.08.36.82.82,0,0,1-.13.46,1,1,0,0,1-.39.32,1.42,1.42,0,0,1-.61.11,1.32,1.32,0,0,1-.59-.11.89.89,0,0,1-.4-.31.9.9,0,0,1-.15-.47h.46a.41.41,0,0,0,.11.27.53.53,0,0,0,.24.17,1.14,1.14,0,0,0,.33.05,1,1,0,0,0,.35-.06.55.55,0,0,0,.24-.18A.39.39,0,0,0,63,56a.33.33,0,0,0-.08-.22.46.46,0,0,0-.21-.14l-.29-.1-.36-.1a1.49,1.49,0,0,1-.59-.3.66.66,0,0,1-.21-.51.78.78,0,0,1,.14-.46,1,1,0,0,1,.39-.31,1.38,1.38,0,0,1,.55-.11,1.35,1.35,0,0,1,.55.11.88.88,0,0,1,.38.3.74.74,0,0,1,.14.44Z"/></g></svg>